<svg width="219" height="227" viewBox="0 0 219 227" fill="none" xmlns="http://www.w3.org/2000/svg">
<rect width="219" height="227" fill="#224A59"/>
<rect width="3.27753" height="85.447" transform="matrix(0.968941 -0.247293 0.259221 0.965818 61.4146 118.036)" fill="white"/>
<rect width="3.24452" height="83.8067" transform="matrix(-0.968941 -0.247293 -0.259221 0.965818 156.329 119.62)" fill="white"/>
<rect width="3.9393" height="84.5782" transform="matrix(0.441058 -0.897478 0.905957 0.423369 33.4043 126.441)" fill="white"/>
<rect width="3.52591" height="82.3946" transform="matrix(0.541688 -0.84058 0.852646 0.52249 23.7139 96.4667)" fill="white"/>
<rect width="3.9393" height="83.5447" transform="matrix(-0.441058 -0.897478 -0.905957 0.423369 185.757 126.846)" fill="white"/>
<rect width="3.52591" height="80.4471" transform="matrix(-0.541688 -0.84058 -0.852646 0.52249 194.656 97.4841)" fill="white"/>
<rect width="3.67789" height="30.8907" transform="matrix(0.583512 -0.812105 0.825678 0.564141 83.4219 200.573)" fill="white"/>
<rect width="3.73197" height="30.3756" transform="matrix(0.957457 -0.288576 0.302144 0.953262 24.0835 97.5022)" fill="white"/>
<rect width="3.73197" height="30.4377" transform="matrix(-0.957457 -0.288576 -0.302144 0.953262 195.088 97.5022)" fill="white"/>
<rect width="3.40278" height="30.8907" transform="matrix(-0.583512 -0.812105 -0.825678 0.564141 134.544 200.573)" fill="white"/>
<line y1="-0.5" x2="54.325" y2="-0.5" transform="matrix(0.304823 0.952409 -0.874763 0.484551 34.1055 7)" stroke="white"/>
<line y1="-0.5" x2="10.3682" y2="-0.5" transform="matrix(0.941062 0.338233 -0.353559 0.935412 34.1055 7)" stroke="white"/>
<line y1="-0.5" x2="24.291" y2="-0.5" transform="matrix(0.271423 0.96246 -0.965874 0.259014 43.2632 9.92236)" stroke="white"/>
<line y1="-0.5" x2="17.8895" y2="-0.5" transform="matrix(-0.508028 0.861341 -0.872187 -0.489172 58.9453 17.8926)" stroke="white"/>
<line y1="-0.5" x2="9.58111" y2="-0.5" transform="matrix(0.874377 0.485248 -0.504052 0.863673 58.8467 18.1052)" stroke="white"/>
<line y1="-0.5" x2="22.2335" y2="-0.5" transform="matrix(-0.605148 0.796113 -0.605148 -0.796113 67.2251 21.9772)" stroke="white"/>
<line y1="-0.5" x2="23.9652" y2="-0.5" transform="matrix(0.259118 0.965846 -0.906998 0.421135 53.7695 39.6779)" stroke="white"/>
<line y1="-0.5" x2="29.8964" y2="-0.5" transform="matrix(0.865463 0.500973 -0.317187 0.948363 59.9795 62.8245)" stroke="white"/>
<line y1="-0.5" x2="30.5914" y2="-0.5" transform="matrix(0.202992 0.97918 -0.94125 0.337712 79.6436 47.8472)" stroke="white"/>
<line y1="-0.5" x2="33.2678" y2="-0.5" transform="matrix(0.871086 0.49113 -0.309748 0.950819 21.686 42.4006)" stroke="white"/>
<line y1="-0.5" x2="14.5659" y2="-0.5" transform="matrix(0.35527 0.934764 -0.83546 0.549551 21.686 42.4006)" stroke="white"/>
<line y1="-0.5" x2="70.5827" y2="-0.5" transform="matrix(0.865128 0.50155 -0.317626 0.948216 26.8608 56.0166)" stroke="white"/>
<path d="M79.7295 47.5668L89.4154 52.297" stroke="white"/>
<line y1="-0.5" x2="56.3839" y2="-0.5" transform="matrix(0.149379 0.98878 -0.989838 0.142198 88.8154 52.0049)" stroke="white"/>
<line y1="-0.5" x2="24.02" y2="-0.5" transform="matrix(0.0558546 0.998439 -0.998588 0.0531206 87.6167 90.5803)" stroke="white"/>
<line y1="-0.5" x2="24.9508" y2="-0.5" transform="matrix(0.871086 0.49113 -0.309748 0.950819 88.959 114.564)" stroke="white"/>
<line y1="-0.5" x2="16.4883" y2="-0.5" transform="matrix(0.816006 0.578044 -0.378799 0.925479 97.2378 107.756)" stroke="white"/>
<path d="M22.8651 91.4693L29.7575 96.7006L24.795 99.7758L22.8651 91.4693Z" fill="white"/>
<line y1="-0.5" x2="54.325" y2="-0.5" transform="matrix(-0.304823 0.952409 0.874763 0.484551 187.58 7)" stroke="white"/>
<line y1="-0.5" x2="10.3682" y2="-0.5" transform="matrix(-0.941062 0.338233 0.353559 0.935412 187.58 7)" stroke="white"/>
<line y1="-0.5" x2="24.291" y2="-0.5" transform="matrix(-0.271423 0.96246 0.965874 0.259014 178.423 9.92236)" stroke="white"/>
<line y1="-0.5" x2="17.8895" y2="-0.5" transform="matrix(0.508028 0.861341 0.872187 -0.489172 162.742 17.8926)" stroke="white"/>
<line y1="-0.5" x2="9.58111" y2="-0.5" transform="matrix(-0.874377 0.485248 0.504052 0.863673 162.838 18.1052)" stroke="white"/>
<line y1="-0.5" x2="22.2335" y2="-0.5" transform="matrix(0.605148 0.796113 0.605148 -0.796113 154.462 21.9772)" stroke="white"/>
<line y1="-0.5" x2="23.9652" y2="-0.5" transform="matrix(-0.259118 0.965846 0.906998 0.421135 167.917 39.6779)" stroke="white"/>
<line y1="-0.5" x2="29.8964" y2="-0.5" transform="matrix(-0.865463 0.500973 0.317187 0.948363 161.707 62.8245)" stroke="white"/>
<line y1="-0.5" x2="30.5914" y2="-0.5" transform="matrix(-0.202992 0.97918 0.94125 0.337712 142.042 47.8472)" stroke="white"/>
<line y1="-0.5" x2="33.2678" y2="-0.5" transform="matrix(-0.871086 0.49113 0.309748 0.950819 200 42.4006)" stroke="white"/>
<line y1="-0.5" x2="14.5659" y2="-0.5" transform="matrix(-0.35527 0.934764 0.83546 0.549551 200 42.4006)" stroke="white"/>
<line y1="-0.5" x2="70.5827" y2="-0.5" transform="matrix(-0.865128 0.50155 0.317626 0.948216 194.825 56.0166)" stroke="white"/>
<path d="M141.956 47.5668L132.271 52.297" stroke="white"/>
<line y1="-0.5" x2="56.3839" y2="-0.5" transform="matrix(-0.149379 0.98878 0.989838 0.142198 132.87 52.0049)" stroke="white"/>
<line y1="-0.5" x2="24.02" y2="-0.5" transform="matrix(-0.0558546 0.998439 0.998588 0.0531206 134.068 90.5803)" stroke="white"/>
<line y1="-0.5" x2="24.9508" y2="-0.5" transform="matrix(-0.871086 0.49113 0.309748 0.950819 132.727 114.564)" stroke="white"/>
<line y1="-0.5" x2="16.4883" y2="-0.5" transform="matrix(-0.816006 0.578044 0.378799 0.925479 124.448 107.756)" stroke="white"/>
<path d="M196.461 91.7714L189.568 97.0028L194.531 100.078L196.461 91.7714Z" fill="white"/>
</svg>
